<?xml version="1.0" standalone="no"?><!DOCTYPE svg PUBLIC "-//W3C//DTD SVG 1.1//EN" "http://www.w3.org/Graphics/SVG/1.1/DTD/svg11.dtd"><svg t="1686817136117" class="icon" viewBox="0 0 1024 1024" version="1.1" xmlns="http://www.w3.org/2000/svg" p-id="2252" xmlns:xlink="http://www.w3.org/1999/xlink" width="48" height="48"><path d="M398.222222 796.444444v56.888889h170.666667v-56.888889H398.222222z m-199.111111 56.888889C91.022222 853.333333 0 762.311111 0 654.222222 0 551.822222 73.955556 472.177778 170.666667 455.111111c11.377778-159.288889 147.911111-284.444444 312.888889-284.444444s295.822222 125.155556 312.888888 284.444444c96.711111 11.377778 170.666667 96.711111 170.666667 199.111111 0 108.088889-91.022222 199.111111-199.111111 199.111111h-568.888889z m193.422222-341.333333l91.022223-91.022222L574.577778 512H568.888889v284.444444h56.888889V563.2l68.266666 68.266667 39.822223-39.822223L483.555556 341.333333 227.555556 597.333333l39.822222 39.822223L341.333333 563.2V796.444444h56.888889V512h-5.688889z m375.466667 284.444444c79.644444 0 142.222222-62.577778 142.222222-142.222222 0-73.955556-51.2-130.844444-125.155555-142.222222l-45.511111-5.688889v-45.511111C728.177778 329.955556 614.4 227.555556 483.555556 227.555556S238.933333 329.955556 227.555556 460.8l-5.688889 45.511111-39.822223 5.688889C108.088889 523.377778 56.888889 580.266667 56.888889 654.222222 56.888889 733.866667 119.466667 796.444444 199.111111 796.444444h568.888889z" fill="#ffffff" p-id="2253"></path></svg>